ply
format ascii 1.0
comment Created in Blender version 4.2.3 LTS
element vertex 281
property float x
property float y
property float z
property float nx
property float ny
property float nz
property uchar red
property uchar green
property uchar blue
property uchar alpha
element face 500
property list uchar uint vertex_indices
end_header
-0.5247529 1.3753283 -0.70781064 -0.35122725 0.9312224 0.09728394 80 53 25 255
-1.5307243 0.24604331 -0.66669196 -0.9830693 0.14970374 0.10565751 86 67 24 255
-0.9062624 -1.114645 -0.6615077 -0.617771 -0.7775466 0.117388934 80 51 24 255
0.5458335 -1.4305779 -0.6918755 0.34923717 -0.9313142 0.103379264 78 46 24 255
1.4283795 -0.2295925 -0.73108095 0.9827674 -0.17874674 0.047094006 78 46 24 255
1.0037585 1.234559 -0.7426332 0.62120295 0.77917457 0.08362943 78 47 24 255
0.7868817 1.2920752 2.8292608 -0.31577006 0.94883543 0.00070390326 78 46 24 255
0.63431954 0.78807294 3.3980312 -0.42756793 0.44027153 0.789523 78 46 24 255
0.98151183 0.07891229 3.4794388 0.07447154 -0.48903316 0.86908025 78 46 24 255
1.5237783 -0.09195131 2.9122634 0.62963396 -0.76963454 0.1059421 78 46 24 255
1.6763406 0.41205093 2.3434935 0.72768164 -0.14694391 -0.66999024 78 46 24 255
1.3291482 1.1212114 2.2620857 0.24995774 0.5881037 -0.7691912 78 46 24 255
2.5903542 2.3640575 4.581569 -0.3895863 0.91467977 -0.107626654 78 46 24 255
2.2849863 1.7895848 4.935225 -0.86856526 0.15559806 0.47051418 78 46 24 255
2.6189215 1.1501446 4.925006 -0.35322082 -0.75469327 0.552877 78 46 24 255
3.3071477 1.0569736 4.6891956 0.53058517 -0.84690267 0.035144553 78 46 24 255
3.5798564 1.6087555 4.2774825 0.8779866 -0.071478896 -0.4733183 78 46 24 255
3.1905706 2.2097397 4.1893067 0.42840132 0.721218 -0.54435 95 79 23 255
3.5487278 3.085654 7.4746904 -0.43897778 0.8688273 -0.2289928 78 46 24 255
3.179144 2.5848727 7.782064 -0.93825537 0.1415887 0.31564134 78 46 24 255
3.457592 1.9852922 7.915912 -0.52762914 -0.674265 0.5166955 78 46 24 255
4.129531 1.8539121 7.8259244 0.38607517 -0.8738658 0.2954732 78 46 24 255
4.4670405 2.3147469 7.4314995 0.9499745 -0.2181894 -0.22347642 78 46 24 255
4.1674128 2.8879485 7.240166 0.5660548 0.66674393 -0.48480356 78 46 24 255
4.610624 4.610956 9.715506 -0.48762602 0.79994917 -0.34971702 78 46 24 255
4.3296723 4.189466 10.02612 -0.95410085 0.18842213 0.23278438 78 46 24 255
4.618494 3.7589545 10.377821 -0.4807214 -0.6401844 0.59922516 79 47 24 255
5.193201 3.6493363 10.151203 0.5460303 -0.7641875 0.34331948 78 46 24 255
5.4463964 4.017116 9.759156 0.96278024 -0.15355578 -0.22242936 78 46 24 255
5.230607 4.5889516 9.621717 0.5102787 0.64119 -0.57314134 78 46 24 255
5.329911 6.0467796 12.149429 -0.26385427 0.78983575 -0.55366087 78 46 24 255
4.9437413 5.755634 12.432309 -0.9826274 0.12466495 -0.13748504 78 46 24 255
5.132165 5.3297153 12.758124 -0.5742855 -0.64868325 0.49940592 78 46 24 255
5.6819963 5.2436676 12.785076 0.3716089 -0.7203689 0.58564097 78 46 24 255
6.062165 5.6140585 12.605646 0.97144294 -0.13586229 0.19452518 78 46 24 255
5.874573 6.0290036 12.265506 0.6967862 0.59951013 -0.39379764 78 46 24 255
4.5048165 8.186996 14.4674015 -0.32790452 0.83038443 -0.450489 79 47 24 255
4.190169 7.8224134 14.55135 -0.9282393 0.2107651 -0.30651224 78 46 24 255
4.296364 7.4207983 14.864521 -0.71158165 -0.69485515 0.10405723 81 52 24 255
4.812382 7.3772254 14.913919 0.3743571 -0.792991 0.48064741 78 46 24 255
5.123651 7.747284 14.842227 0.95967853 -0.007782649 0.28099182 78 46 24 255
4.9722934 8.222087 14.692896 0.5560244 0.81947243 -0.13893165 78 46 24 255
3.9998498 8.289578 17.356974 -0.4255153 0.9011203 -0.08318047 0 254 44 255
3.7322273 7.9702525 17.426538 -0.98426867 0.074992016 -0.15997343 0 254 44 255
3.860473 7.588874 17.549597 -0.6440073 -0.7629084 -0.05679188 0 254 44 255
4.2788463 7.5023284 17.547888 0.22393392 -0.96883893 0.105852105 0 254 44 255
4.541638 7.8038893 17.412123 0.94822127 -0.23117496 0.21779476 0 254 44 255
4.4174657 8.200248 17.344881 0.63453186 0.75973743 0.14201495 0 254 44 255
-1.32999 0.36372808 3.0687487 -0.534464 0.83889127 0.10300264 78 46 24 255
-1.5575907 -0.15799956 2.543651 -0.77005607 0.16858608 -0.61529857 78 46 24 255
-1.2744569 -0.8966372 2.4879723 -0.36662254 -0.60697955 -0.70509833 78 46 24 255
-0.71363294 -1.0785633 3.0321689 0.22394821 -0.972519 0.06367061 78 46 24 255
-0.48603225 -0.5568357 3.5572667 0.43835488 -0.35539225 0.82555515 78 46 24 255
-0.7691659 0.18180177 3.612945 0.08199093 0.58145905 0.80943364 78 46 24 255
-3.13891 -0.60895234 4.9204135 -0.46728164 0.883985 -0.014775505 78 46 24 255
-3.5436919 -1.1632566 4.6545897 -0.90989846 0.09829535 -0.40301725 78 46 24 255
-3.1872532 -1.7979555 4.579374 -0.5142515 -0.7357577 -0.440688 78 46 24 255
-2.5596964 -1.9332672 4.8953414 0.29121402 -0.9549021 -0.05793487 78 46 24 255
-2.1982229 -1.3996003 5.2507286 0.8930084 -0.21409388 0.39585334 78 46 24 255
-2.478519 -0.72861767 5.1684775 0.42819485 0.7819358 0.4530182 78 46 24 255
-3.6916518 -0.8283392 8.117522 -0.43593115 0.89635473 0.08069781 78 46 24 255
-4.081535 -1.4074527 7.9633684 -0.99624246 0.08435626 0.019621357 78 46 24 255
-3.8185747 -2.0271597 7.919172 -0.6601732 -0.75035733 -0.033690564 78 46 24 255
-3.1295824 -2.1732 8.041238 0.32496703 -0.94473517 -0.04326589 78 46 24 255
-2.7395318 -1.5803488 7.9544463 0.99456686 -0.098978944 0.032245595 78 46 24 255
-3.0024788 -0.9596139 7.980607 0.5996588 0.79718643 0.07002249 78 46 24 255
-3.0873156 -1.0646263 11.035209 -0.35330248 0.9351049 0.027497735 81 53 24 255
-3.436065 -1.5357585 10.948412 -0.9817531 0.18483245 0.044694286 79 47 24 255
-3.2862692 -2.132837 11.120221 -0.6113617 -0.79133266 -0.0054412107 78 46 24 255
-2.662831 -2.1955671 11.012975 0.44868594 -0.89339983 0.022748567 78 46 24 255
-2.3153985 -1.7217152 10.936293 0.9822364 -0.18717632 -0.013290831 78 46 24 255
-2.4622483 -1.1307218 11.130255 0.6951743 0.7179489 0.03580576 78 46 24 255
-3.4899642 -1.0640922 13.907822 -0.20092162 0.9795256 -0.012656268 0 254 44 255
-3.9033284 -1.4479319 13.803106 -0.9469258 0.29016104 -0.13834047 0 254 44 255
-3.7134674 -1.9932896 13.767122 -0.67619365 -0.7333457 -0.07047184 0 254 44 255
-3.1811461 -2.1089287 13.896244 0.34197173 -0.93654704 0.07703734 0 254 44 255
-2.8328512 -1.7462217 14.172472 0.9684705 -0.18651356 0.16515905 0 254 44 255
-2.9959917 -1.1921862 14.138024 0.7125213 0.6874419 0.14048843 0 254 44 255
-4.0013266 -1.0531061 8.772712 0.48632464 0.54614234 0.6820681 78 46 24 255
-3.1392293 -1.1697367 8.379412 0.40575674 0.5604785 0.7219593 78 46 24 255
-4.3470697 -0.9044217 8.116936 -0.198498 0.80522656 -0.55875635 81 52 24 255
-3.4906294 -1.0131184 7.643376 -0.19017932 0.8264799 -0.52987057 78 46 24 255
-4.509918 -1.6387552 8.039984 -0.55913293 -0.5320128 -0.6358716 78 46 24 255
-3.6744301 -1.8187099 7.559707 -0.503151 -0.54315937 -0.6721733 78 46 24 255
-4.164175 -1.7874396 8.695759 0.08084501 -0.8277033 0.55531186 78 46 24 255
-3.32303 -1.9753281 8.295744 0.09467219 -0.8095728 0.57933503 78 46 24 255
-5.390949 -0.6669128 9.677381 0.6186585 0.54669976 0.5642526 84 60 24 255
-5.902125 -0.4429427 9.282614 -0.2708785 0.8574633 -0.43747184 78 46 24 255
-6.1089344 -1.0923401 9.229533 -0.69896305 -0.4277631 -0.5731225 78 46 24 255
-5.728767 -1.2532308 9.77441 0.22080511 -0.87771666 0.42527458 78 46 24 255
-6.7406445 -0.56883955 11.39478 0.61689925 0.37656927 0.6911084 78 46 24 255
-7.1014905 -0.3565402 10.946146 -0.17516539 0.9379971 -0.29912952 78 46 24 255
-7.233384 -0.9323154 10.779895 -0.6350549 -0.46937895 -0.6135052 78 46 24 255
-6.8733053 -1.1446158 11.229145 0.25513628 -0.87579566 0.40974066 78 46 24 255
-7.6987643 -0.4435536 11.911309 0.39106056 0.55540866 0.73388886 81 53 24 255
-8.103239 -0.2514983 11.531596 -0.45619935 0.86816585 -0.19537179 78 46 24 255
-8.0991955 -0.79080373 11.299645 -0.5785471 -0.28724387 -0.76339644 78 46 24 255
-7.8227525 -1.00053 11.773208 0.48193902 -0.85933155 0.171126 78 46 24 255
-8.462849 -1.2725008 12.801921 0.53477377 0.34409305 0.7717623 0 254 44 255
-8.957306 -1.1408614 12.591738 -0.6497434 0.7514753 0.11453531 0 254 44 255
-8.885893 -1.5363781 12.2116585 -0.5324587 -0.30817947 -0.78836095 0 254 44 255
-8.43099 -1.7146487 12.471037 0.6624577 -0.7297084 -0.16933817 0 254 44 255
-2.2822728 -1.0455934 5.8455286 -0.2936567 0.79324216 0.53341585 78 46 24 255
-2.876723 -0.6862325 5.105139 -0.2600332 0.7700781 0.5825483 78 46 24 255
-2.5432827 -1.8117194 5.761854 -0.76723653 -0.5444818 0.3389507 78 46 24 255
-3.1773632 -1.5280854 4.992409 -0.73298514 -0.547181 0.4041357 78 46 24 255
-1.9151756 -1.9679143 5.26874 0.3514474 -0.81506497 -0.46060154 78 46 24 255
-2.4994266 -1.6938832 4.422566 0.32892495 -0.80743253 -0.48975602 78 46 24 255
-1.6541653 -1.2017883 5.3524146 0.7824609 0.5115393 -0.35508066 79 47 24 255
-2.1987863 -0.8520302 4.5352955 0.80000824 0.5122396 -0.31240588 78 46 24 255
-0.6500022 -1.476788 6.838946 0.18636073 0.77307034 0.60632646 78 46 24 255
-0.89423436 -2.0137203 6.8680286 -0.39579666 -0.502799 0.76846474 78 46 24 255
-0.7281168 -2.1324918 6.3138714 0.0052152746 -0.7814966 -0.62388766 78 46 24 255
-0.4838848 -1.59556 6.2847886 0.5774977 0.5313951 -0.6197707 109 99 22 255
0.31213522 -2.2039685 7.163605 0.28727916 0.72184396 0.6296126 78 46 24 255
0.029873848 -2.6913445 7.210881 -0.6710298 -0.38044092 0.63638324 78 46 24 255
0.13372731 -2.7629967 6.659953 -0.19162689 -0.70472306 -0.68311393 82 55 24 255
0.567266 -2.402609 6.700041 0.6897451 0.333923 -0.64245397 78 47 24 255
0.9736602 -2.8444972 7.646137 0.08286541 0.93495166 0.3449616 78 46 24 255
0.63503337 -3.2499623 7.6869664 -0.7963454 -0.3339577 0.5042877 78 46 24 255
0.95342374 -3.5517015 7.389783 -0.0011865402 -0.9340631 -0.3571062 78 46 24 255
1.2336776 -3.117285 7.2736926 0.7884133 0.039314263 -0.6138883 78 46 24 255
1.4200823 -2.842571 8.488073 -0.2454949 0.9689122 -0.030681318 78 46 24 255
1.2166386 -3.2696137 8.654756 -0.8627797 -0.32966644 0.38331607 78 46 24 255
1.6344672 -3.5126204 8.520946 0.34911597 -0.9368579 0.02037869 78 46 24 255
1.8544562 -3.0779545 8.401746 0.9166348 0.20529345 -0.34297985 78 46 24 255
1.6396239 -2.5004869 9.845561 -0.313746 0.94349784 -0.10665424 79 49 24 255
1.4607612 -2.9736574 9.790222 -0.93051344 -0.3380955 0.14084046 99 86 23 255
1.9116423 -3.1602356 9.934582 0.45036346 -0.88355714 0.12845083 111 107 22 255
2.0771143 -2.7288163 9.7214155 0.9196455 0.3741611 -0.119396284 78 46 24 255
1.546866 -2.4646719 11.202693 -0.41759235 0.90467167 0.08476931 0 254 44 255
1.4055396 -2.879375 11.017234 -0.93841606 -0.3454532 0.006115052 0 254 44 255
1.8102896 -3.0740669 11.174138 0.37123477 -0.9271141 -0.051419057 0 254 44 255
1.9436305 -2.6465952 11.013408 0.8944646 0.4463533 0.026490483 0 254 44 255
-2.1572914 -2.1428733 7.1854987 -0.44988933 0.548467 0.7048287 78 46 24 255
-2.3503487 -2.4541907 6.720389 -0.9185037 -0.13649312 -0.37110713 78 46 24 255
-1.8034501 -2.6540222 6.613216 0.40014297 -0.654124 -0.64187795 78 46 24 255
-1.6103929 -2.3427048 7.0783257 0.8659252 0.090001196 0.49200955 78 46 24 255
-2.2641249 -3.2807205 7.8422546 -0.39064756 0.4271649 0.81542915 78 46 24 255
-2.4492602 -3.5180552 7.3712296 -0.891009 -0.0059919157 -0.4539461 78 46 24 255
-1.9180882 -3.6297517 7.2376366 0.50708765 -0.45929685 -0.7293206 78 47 24 255
-1.7583122 -3.5033195 7.7581687 0.8527227 0.0018850177 0.5223603 78 46 24 255
-2.5839922 -4.301622 8.10859 -0.32686332 0.61240417 0.7198067 78 46 24 255
-2.7428734 -4.452578 7.6292787 -0.77430737 0.056386992 -0.6302925 78 46 24 255
-2.3335602 -4.78256 7.5926185 0.3327753 -0.6590428 -0.6744799 78 46 24 255
-2.136765 -4.570007 8.032916 0.8480583 -0.25360847 0.46527404 78 46 24 255
-3.1467867 -4.83075 8.669653 -0.28195646 0.9274536 0.24562237 78 46 24 255
-3.4463603 -5.1716847 8.459364 -0.9275527 -0.101181425 -0.35973367 78 46 24 255
-3.0775363 -5.50897 8.479612 -0.0063789664 -0.9460889 -0.32384387 78 46 24 255
-2.7766314 -5.1667886 8.685938 0.9392167 -0.16629852 0.30036113 78 46 24 255
-3.1715746 -4.85731 9.939485 0.04885822 0.9926929 0.11033513 78 46 24 255
-3.4771414 -5.2078705 9.779422 -0.981735 0.00053354766 -0.19025284 78 46 24 255
-3.1514597 -5.557515 9.89589 0.11506289 -0.9928237 -0.032583904 78 46 24 255
-2.8172722 -5.1982794 9.929851 0.97349054 0.029470649 0.22682041 78 46 24 255
-3.7328033 -5.021116 11.181214 -0.09334527 0.9948137 0.040401608 81 54 24 255
-3.9047344 -5.352056 10.845582 -0.93168867 -0.043574657 -0.3606347 78 46 24 255
-3.6985812 -5.6986065 11.144137 0.017139208 -0.9989422 -0.042668667 78 46 24 255
-3.3663123 -5.335807 11.045624 0.92592007 -7.8517674e-05 0.37771922 78 46 24 255
5.7479997 6.0863714 11.647524 0.6309191 -0.015229299 0.77569914 78 46 24 255
5.5682425 4.97864 11.786526 0.6459992 -0.008641947 0.7632891 78 46 24 255
5.793192 6.000034 11.014185 0.7448882 -0.2015595 -0.6360151 78 46 24 255
5.624711 4.907529 11.06725 0.7561261 -0.14757304 -0.63756996 78 46 24 255
5.1707444 6.1395955 10.953402 -0.64139706 0.11324985 -0.7588045 78 46 24 255
4.915575 5.0416093 10.998323 -0.62542826 0.113309324 -0.7720107 78 46 24 255
5.1255517 6.2259336 11.586739 -0.7259034 0.2871104 0.62500554 78 46 24 255
4.859107 5.1127205 11.717597 -0.73537207 0.25148636 0.6292714 78 46 24 255
6.0156407 7.1498184 11.463404 0.64184713 0.0839511 0.76222336 78 46 24 255
6.0539775 7.0380282 10.87893 0.74830675 -0.35612148 -0.5596556 78 46 24 255
5.4619737 7.1010056 10.8451395 -0.68836135 -0.0061970637 -0.72534144 78 50 24 255
5.460791 7.353791 11.385208 -0.66037506 0.41113213 0.62839085 78 46 24 255
6.2790146 8.182392 10.930792 0.67749983 -0.022932412 0.73516524 78 46 24 255
6.1747446 7.8673406 10.465008 0.5557291 -0.45650318 -0.6948166 78 46 24 255
5.7383275 8.220303 10.355278 -0.6911429 0.08791502 -0.71735096 78 46 24 255
5.7113132 8.251482 10.925701 -0.67879134 0.50035244 0.5374846 78 46 24 255
6.8932242 9.064082 10.65495 0.5661074 -0.4171283 0.7110037 78 46 24 255
6.8604136 9.010896 10.133316 0.4962714 -0.44334674 -0.7464304 78 46 24 255
6.503519 9.395824 10.111766 -0.50490457 0.45462435 -0.7337493 78 46 24 255
6.475044 9.381541 10.636164 -0.5689692 0.55471164 0.6070988 78 46 24 255
7.6214275 9.753948 10.737424 0.23583688 -0.67305195 0.7009864 78 46 24 255
7.9028234 9.896533 10.300657 0.32369754 -0.4109278 -0.85226655 98 100 25 255
7.5042624 10.256941 10.339826 -0.26919335 0.7704716 -0.57784826 78 46 24 255
7.6347246 10.277923 10.862146 -0.33684042 0.6268974 0.7025227 78 46 24 255
8.966243 9.919792 11.028076 -0.048960667 -0.8384305 0.5428048 16 249 43 255
9.259739 9.983383 10.646043 0.23622812 -0.5746434 -0.78356963 0 254 44 255
9.043977 10.417594 10.67833 0.09389041 0.78446084 -0.61303 0 254 44 255
9.053875 10.378447 11.162584 -0.2059161 0.6025453 0.7710627 0 254 44 255
1.8561418 -2.9672043 12.673018 0.5371193 -0.11883676 0.8350932 0 254 44 255
-4.1072903 -5.390704 12.485095 0.2609528 0.0034193748 0.96534544 78 46 24 255
10.846567 5.814359 20.303188 0.8804524 -0.46810862 -0.07535122 0 254 44 255
6.8732166 4.2227335 24.213495 0.15982969 -0.7567722 0.6338378 0 254 44 255
5.9095163 3.3188014 18.568546 -0.014950937 -0.92071325 -0.38995335 0 254 44 255
8.060059 7.835388 15.638205 0.3750797 -0.101566754 -0.92141163 0 254 44 255
2.3645482 7.492826 16.665394 -0.65788066 -0.16369535 -0.73511696 0 254 44 255
1.63104 5.260083 21.965212 -0.7909126 -0.56863445 0.22607994 0 254 44 255
9.619358 9.297983 24.771925 0.65788066 0.16369526 0.73511684 0 254 44 255
10.352865 11.5307255 19.472105 0.79091245 0.5686347 -0.22607982 0 254 44 255
6.0743895 13.472007 22.86877 0.014951142 0.92071325 0.38995326 0 254 44 255
5.110689 12.568075 17.223824 -0.1598297 0.75677246 -0.63383746 0 254 44 255
1.1373382 10.976447 21.13413 -0.88045233 0.46810865 0.07535135 0 254 44 255
3.9238477 8.955421 25.799112 -0.3750797 0.10156703 0.92141163 0 254 44 255
-8.0904 -5.7949796 21.510075 -0.6025444 -0.6672431 0.43786615 0 254 44 255
-0.85171384 -6.8648653 21.03681 0.43544894 -0.8206597 0.37000248 0 254 44 255
-3.5026424 -1.604998 25.404142 0.055318322 -0.06641939 0.9962572 0 254 44 255
-4.994374 -7.0914807 14.990801 -0.15858893 -0.85315514 -0.49696675 0 254 44 255
1.5068345 -3.7027807 14.855735 0.77365345 -0.36723152 -0.5163343 0 254 44 255
2.4287744 -0.31194872 21.291533 0.9058553 0.118997954 0.40652865 0 254 44 255
-9.283668 1.4191654 22.05729 -0.77365357 0.36723155 0.5163345 0 254 44 255
-6.9251194 4.58125 15.876215 -0.43544894 0.82065976 -0.37000242 0 254 44 255
-10.205608 -1.9716666 15.621492 -0.90585536 -0.11899777 -0.40652862 0 254 44 255
-4.274191 -0.6786174 11.5088825 -0.055318225 0.06641944 -0.9962571 0 254 44 255
0.31356668 3.5113642 15.402951 0.6025444 0.667243 -0.43786624 0 254 44 255
-2.7824597 4.8078656 21.922222 0.1585889 0.8531552 0.4969665 0 254 44 255
-12.044287 -6.658245 16.72232 -0.51222634 -0.7634716 0.39336416 0 254 44 255
-10.864863 -2.9102695 19.272242 -0.24747322 0.077860855 0.96576124 0 254 44 255
-14.061895 -2.5174997 15.871484 -0.96513236 0.16602856 0.20237099 0 254 44 255
-12.727468 -5.2488737 12.30787 -0.66558456 -0.44710106 -0.59757656 0 254 44 255
-11.970274 -0.62985927 12.129509 -0.4956124 0.58975935 -0.63761455 0 254 44 255
-10.81912 0.8154775 16.433725 -0.23720533 0.91420346 0.32858112 0 254 44 255
-7.5545588 -5.88439 17.81041 0.49561238 -0.5897593 0.6376145 0 254 44 255
-8.705712 -7.329726 13.506194 0.23720536 -0.91420346 -0.3285811 0 254 44 255
-5.4629374 -3.9967494 14.068435 0.9651324 -0.16602838 -0.20237093 0 254 44 255
-8.65997 -3.6039793 10.667677 0.24747331 -0.0778609 -0.9657612 0 254 44 255
-7.480546 0.14399599 13.217597 0.5122262 0.7634717 -0.39336404 0 254 44 255
-6.797364 -1.2653749 17.63205 0.66558456 0.44710082 0.59757674 0 254 44 255
0.026067734 -1.175915 13.349293 -0.69605654 0.6818024 0.225057 0 254 44 255
1.7619762 -2.1812284 15.2723055 -0.039223004 0.30141172 0.95268697 0 254 44 255
2.727268 -0.5302675 13.256234 0.32602456 0.92610306 0.1898453 0 254 44 255
1.3648978 -1.1480955 10.914389 -0.18946956 0.69232863 -0.69626313 0 254 44 255
3.92825 -2.136216 11.332546 0.78045255 0.3184434 -0.53804046 0 254 44 255
4.1736574 -2.774727 14.025886 0.8733099 0.07684355 0.48106635 0 254 44 255
-0.19697738 -3.8194082 14.176458 -0.78045255 -0.3184432 0.53804064 0 254 44 255
-0.44238472 -3.180897 11.483119 -0.8733099 -0.07684348 -0.48106632 0 254 44 255
1.0040045 -5.4253564 12.252771 -0.32602453 -0.926103 -0.1898454 0 254 44 255
1.9692962 -3.7743955 10.236699 0.039223 -0.30141154 -0.95268697 24 254 44 255
3.705205 -4.779709 12.159712 0.69605666 -0.6818022 -0.22505713 0 254 44 255
2.3663745 -4.8075285 14.594617 0.18946947 -0.6923286 0.6962632 0 254 44 255
13.919237 10.975928 11.397935 0.97711843 0.2042962 -0.059182204 0 254 44 255
11.568967 12.603207 9.366172 0.2724885 0.6921679 -0.6683215 0 254 44 255
11.644908 13.238899 12.81436 0.2952565 0.88275313 0.36547306 0 254 44 255
12.251255 9.198111 8.876612 0.4770437 -0.3287075 -0.8150955 0 254 44 255
8.946054 10.36233 8.734774 -0.51388234 0.02033456 -0.8576196 0 254 44 255
8.571312 12.859674 11.168434 -0.626233 0.76905864 -0.12798862 0 254 44 255
12.374128 10.226681 14.455897 0.5138824 -0.02033483 0.8576195 0 254 44 255
9.751216 7.9858017 13.824499 -0.27248812 -0.6921681 0.6683214 0 254 44 255
12.748871 7.7293363 12.022236 0.6262332 -0.7690585 0.12798816 0 254 44 255
9.675275 7.35011 10.37631 -0.29525605 -0.88275313 -0.36547348 75 77 26 255
7.400945 9.613082 11.792737 -0.97711843 -0.20429607 0.05918251 0 254 44 255
9.068928 11.3909 14.31406 -0.4770435 0.32870787 0.8150955 0 254 44 255
2.0038364 4.5528107 21.41176 0.23419574 0.9402442 -0.24717033 0 254 44 255
4.549626 2.1803465 22.668844 0.9576582 0.2660372 0.11006854 0 254 44 255
3.0421627 1.6774579 19.327507 0.52926725 0.12312623 -0.8394738 0 254 44 255
-0.52979505 2.6206486 19.530977 -0.48581198 0.3911621 -0.7816514 0 254 44 255
0.45012343 -0.94595957 19.625675 -0.20733899 -0.62239665 -0.7547403 0 254 44 255
3.5893774 -1.218081 21.564983 0.68477476 -0.6997281 -0.20362729 0 254 44 255
1.9093298 3.4343383 24.937378 0.20733888 0.6223965 0.75474036 0 254 44 255
-1.2299241 3.7064595 22.998068 -0.68477476 0.69972813 0.20362714 0 254 44 255
-0.68270963 0.81092066 25.235546 -0.529267 -0.12312628 0.8394738 0 254 44 255
-2.1901727 0.30803233 21.894207 -0.95765805 -0.26603708 -0.110068925 0 254 44 255
0.35561678 -2.0644326 23.151293 -0.23419552 -0.94024426 0.24717015 0 254 44 255
2.8892484 -0.13226976 25.032074 0.4858123 -0.39116153 0.7816515 0 254 44 255
-0.3630295 1.143422 2.3990147 -0.3388499 0.9233669 0.18048322 78 46 24 255
-1.2612922 0.19440359 2.2009294 -0.9382288 0.27817142 -0.20578422 78 46 24 255
-0.7141771 -0.8368237 2.18956 -0.4632365 -0.85371715 -0.23786339 85 60 23 255
-1.1824863 -1.3879981 5.8804026 0.60144687 0.5557083 -0.5739773 91 72 23 255
0.48326033 -1.0872747 2.3490987 0.34209874 -0.9219271 0.18171085 78 46 24 255
1.3185798 -0.10393205 2.0371866 0.93205464 -0.3066435 -0.19298665 78 46 24 255
0.85420215 0.96907717 2.0713942 0.3844628 0.8520761 -0.3551827 78 46 24 255
-0.048278134 0.52402073 3.4945433 -0.102545366 0.487563 0.8670448 78 46 24 255
0.3244267 -0.45837468 3.472561 0.25741196 -0.48924208 0.83329535 78 46 24 255
-1.9176377 -1.2241777 6.39276 -0.2774736 0.81807745 0.5037436 78 46 24 255
-2.254078 -2.0612664 6.351115 -0.945514 -0.2888902 -0.15015204 78 46 24 255
-1.5224355 -2.1254084 5.9111633 0.31147122 -0.8108804 -0.4954379 78 46 24 255
-1.446173 -1.8891232 6.7843666 0.30564967 -0.10275915 0.9465827 78 46 24 255
-4.147225 -5.119245 12.492816 -0.35740462 0.7356104 0.575447 83 59 24 255
-4.3319383 -5.423848 12.273372 -0.98676 -0.12610602 0.10198992 116 206 32 255
-4.0659347 -5.6620398 12.47264 -0.118178 -0.8185349 0.5621695 78 46 24 255
1.5818516 -3.0580456 12.503732 -0.7761728 -0.46725303 0.42335612 0 254 44 255
1.9401639 -3.1854954 12.410953 0.40903774 -0.87930816 0.24393678 0 254 44 255
-3.8525722 -5.354948 12.596633 0.5442875 0.06488671 0.83638555 78 46 24 255
1.7399523 -2.7129757 12.65902 -0.2376642 0.61076444 0.75530285 0 254 44 255
2.0999825 -2.8423445 12.580986 0.7764705 0.15414259 0.61101043 0 254 44 255
3 6 13 12
3 14 7 8
3 9 14 8
3 10 15 9
3 10 17 16
3 6 17 11
3 13 18 12
3 20 13 14
3 21 14 15
3 15 22 21
3 16 23 22
3 12 23 17
3 25 18 19
3 20 25 19
3 21 26 20
3 22 27 21
3 23 28 22
3 23 24 29
3 31 24 25
3 26 31 25
3 33 26 27
3 34 27 28
3 28 35 34
3 29 30 35
3 30 37 36
3 38 31 32
3 39 32 33
3 34 39 33
3 35 40 34
3 30 41 35
3 37 42 36
3 38 43 37
3 38 45 44
3 39 46 45
3 47 40 41
3 42 41 36
3 49 54 48
3 49 56 55
3 50 57 56
3 51 58 57
3 59 52 53
3 48 59 53
3 61 54 55
3 62 55 56
3 62 57 63
3 63 58 64
3 65 58 59
3 54 65 59
3 67 60 61
3 62 67 61
3 63 68 62
3 63 70 69
3 65 70 64
3 65 66 71
3 66 73 72
3 68 73 67
3 75 68 69
3 75 70 76
3 71 76 70
3 71 72 77
3 81 78 79
3 81 82 80
3 83 84 82
3 79 84 85
3 91 94 90
3 91 96 95
3 97 92 93
3 90 97 93
3 99 94 95
3 96 99 95
3 97 100 96
3 98 97 94
3 105 102 103
3 107 104 105
3 107 108 106
3 109 102 108
3 111 114 110
3 111 116 115
3 113 116 112
3 113 114 117
3 115 118 114
3 116 119 115
3 116 121 120
3 117 118 121
3 123 118 119
3 123 120 124
3 124 121 125
3 125 118 122
3 122 127 126
3 124 127 123
3 124 129 128
3 129 122 126
3 126 131 130
3 128 131 127
3 133 128 129
3 126 133 129
3 135 138 134
3 136 139 135
3 137 140 136
3 137 138 141
3 139 142 138
3 140 143 139
3 140 145 144
3 141 142 145
3 143 146 142
3 148 143 144
3 144 149 148
3 142 149 145
3 151 146 147
3 151 148 152
3 152 149 153
3 150 149 146
3 150 155 154
3 152 155 151
3 152 157 156
3 150 157 153
3 159 160 158
3 163 160 161
3 165 162 163
3 165 158 164
3 160 166 158
3 160 168 167
3 164 168 162
3 164 166 169
3 167 170 166
3 168 171 167
3 168 173 172
3 170 169 166
3 175 170 171
3 172 175 171
3 172 177 176
3 177 170 174
3 175 178 174
3 175 180 179
3 177 180 176
3 177 178 181
3 179 182 178
3 184 179 180
3 181 184 180
3 181 182 185
3 188 189 190
3 191 188 190
3 192 191 190
3 193 192 190
3 189 193 190
3 194 195 196
3 195 197 196
3 197 198 196
3 198 199 196
3 199 194 196
3 188 194 189
3 191 195 188
3 192 197 191
3 193 198 192
3 189 199 193
3 194 188 195
3 195 191 197
3 197 192 198
3 198 193 199
3 199 189 194
3 200 201 202
3 203 201 200
3 204 201 203
3 205 201 204
3 202 201 205
3 206 207 208
3 208 207 209
3 209 207 210
3 210 207 211
3 211 207 206
3 200 202 206
3 203 200 208
3 204 203 209
3 205 204 210
3 202 205 211
3 206 208 200
3 208 209 203
3 209 210 204
3 210 211 205
3 211 206 202
3 212 213 214
3 215 212 214
3 216 215 214
3 217 216 214
3 213 217 214
3 218 219 220
3 219 221 220
3 221 222 220
3 222 223 220
3 223 218 220
3 212 218 213
3 215 219 212
3 216 221 215
3 217 222 216
3 213 223 217
3 218 212 219
3 219 215 221
3 221 216 222
3 222 217 223
3 223 213 218
3 224 225 226
3 227 224 226
3 228 227 226
3 229 228 226
3 225 229 226
3 230 231 232
3 231 233 232
3 233 234 232
3 234 235 232
3 235 230 232
3 224 230 225
3 227 231 224
3 228 233 227
3 229 234 228
3 225 235 229
3 230 224 231
3 231 227 233
3 233 228 234
3 234 229 235
3 235 225 230
3 236 237 238
3 239 237 236
3 240 237 239
3 241 237 240
3 238 237 241
3 242 243 244
3 244 243 245
3 245 243 246
3 246 243 247
3 247 243 242
3 236 238 242
3 239 236 244
3 240 239 245
3 241 240 246
3 238 241 247
3 242 244 236
3 244 245 239
3 245 246 240
3 246 247 241
3 247 242 238
3 248 249 250
3 251 248 250
3 252 251 250
3 253 252 250
3 249 253 250
3 254 255 256
3 255 257 256
3 257 258 256
3 258 259 256
3 259 254 256
3 248 254 249
3 251 255 248
3 252 257 251
3 253 258 252
3 249 259 253
3 254 248 255
3 255 251 257
3 257 252 258
3 258 253 259
3 259 249 254
3 0 261 260
3 1 262 261
3 3 262 2
3 3 265 264
3 5 265 4
3 0 266 5
3 260 7 6
3 8 267 268
3 9 268 264
3 265 9 264
3 266 10 265
3 6 266 260
3 261 48 260
3 262 49 261
3 51 262 264
3 268 51 264
3 267 52 268
3 48 267 260
3 269 104 270
3 271 104 106
3 271 108 263
3 108 269 263
3 110 272 111
3 112 272 271
3 263 112 271
3 110 263 269
3 130 276 279
3 132 276 131
3 280 132 133
3 130 280 133
3 270 134 269
3 136 270 271
3 272 136 271
3 134 272 269
3 274 154 155
3 274 156 275
3 278 156 157
3 278 154 273
3 276 186 279
3 277 280 279
3 277 279 186
3 274 187 273
3 275 278 273
3 275 273 187
3 92 89 93
3 87 92 91
3 90 89 86
3 91 86 87
3 84 88 82
3 88 80 82
3 86 84 78
3 80 86 78
3 6 7 13
3 14 13 7
3 9 15 14
3 10 16 15
3 10 11 17
3 6 12 17
3 13 19 18
3 20 19 13
3 21 20 14
3 15 16 22
3 16 17 23
3 12 18 23
3 25 24 18
3 20 26 25
3 21 27 26
3 22 28 27
3 23 29 28
3 23 18 24
3 31 30 24
3 26 32 31
3 33 32 26
3 34 33 27
3 28 29 35
3 29 24 30
3 30 31 37
3 38 37 31
3 39 38 32
3 34 40 39
3 35 41 40
3 30 36 41
3 37 43 42
3 38 44 43
3 38 39 45
3 39 40 46
3 47 46 40
3 42 47 41
3 49 55 54
3 49 50 56
3 50 51 57
3 51 52 58
3 59 58 52
3 48 54 59
3 61 60 54
3 62 61 55
3 62 56 57
3 63 57 58
3 65 64 58
3 54 60 65
3 67 66 60
3 62 68 67
3 63 69 68
3 63 64 70
3 65 71 70
3 65 60 66
3 66 67 73
3 68 74 73
3 75 74 68
3 75 69 70
3 71 77 76
3 71 66 72
3 81 80 78
3 81 83 82
3 83 85 84
3 79 78 84
3 91 95 94
3 91 92 96
3 97 96 92
3 90 94 97
3 99 98 94
3 96 100 99
3 97 101 100
3 98 101 97
3 105 104 102
3 107 106 104
3 107 109 108
3 109 103 102
3 111 115 114
3 111 112 116
3 113 117 116
3 113 110 114
3 115 119 118
3 116 120 119
3 116 117 121
3 117 114 118
3 123 122 118
3 123 119 120
3 124 120 121
3 125 121 118
3 122 123 127
3 124 128 127
3 124 125 129
3 129 125 122
3 126 127 131
3 128 132 131
3 133 132 128
3 126 130 133
3 135 139 138
3 136 140 139
3 137 141 140
3 137 134 138
3 139 143 142
3 140 144 143
3 140 141 145
3 141 138 142
3 143 147 146
3 148 147 143
3 144 145 149
3 142 146 149
3 151 150 146
3 151 147 148
3 152 148 149
3 150 153 149
3 150 151 155
3 152 156 155
3 152 153 157
3 150 154 157
3 159 161 160
3 163 162 160
3 165 164 162
3 165 159 158
3 160 167 166
3 160 162 168
3 164 169 168
3 164 158 166
3 167 171 170
3 168 172 171
3 168 169 173
3 170 173 169
3 175 174 170
3 172 176 175
3 172 173 177
3 177 173 170
3 175 179 178
3 175 176 180
3 177 181 180
3 177 174 178
3 179 183 182
3 184 183 179
3 181 185 184
3 181 178 182
3 0 1 261
3 1 2 262
3 3 264 262
3 3 4 265
3 5 266 265
3 0 260 266
3 260 267 7
3 8 7 267
3 9 8 268
3 265 10 9
3 266 11 10
3 6 11 266
3 261 49 48
3 262 50 49
3 51 50 262
3 268 52 51
3 267 53 52
3 48 53 267
3 269 102 104
3 271 270 104
3 271 106 108
3 108 102 269
3 110 269 272
3 112 111 272
3 263 113 112
3 110 113 263
3 130 131 276
3 132 277 276
3 280 277 132
3 130 279 280
3 270 135 134
3 136 135 270
3 272 137 136
3 134 137 272
3 274 273 154
3 274 155 156
3 278 275 156
3 278 157 154
3 276 277 186
3 274 275 187
3 92 88 89
3 87 88 92
3 90 93 89
3 91 90 86
3 84 89 88
3 88 87 80
3 86 89 84
3 80 87 86
