ply
format ascii 1.0
comment Created in Blender version 4.2.3 LTS
element vertex 400
property float x
property float y
property float z
property float nx
property float ny
property float nz
property uchar red
property uchar green
property uchar blue
property uchar alpha
element face 756
property list uchar uint vertex_indices
end_header
-10.715136 4.3462043 -0.38085324 -0.035383616 0.08723974 -0.99555874 53 53 53 255
-10.715136 4.3462043 0.38085324 -0.035387624 0.087239735 0.99555856 53 53 53 255
-10.715136 -4.3462043 -0.38085324 -0.035387624 -0.087239735 -0.99555856 53 53 53 255
-10.715136 -4.3462043 0.38085324 -0.035383616 -0.08723974 0.99555874 53 53 53 255
10.715136 4.3462043 -0.38085324 0.035387624 0.087239735 -0.99555856 53 53 53 255
10.715136 4.3462043 0.38085324 0.035383616 0.08723974 0.99555874 53 53 53 255
10.715136 -4.3462043 -0.38085324 0.035383616 -0.08723974 -0.99555874 53 53 53 255
10.715136 -4.3462043 0.38085324 0.035387624 -0.087239735 0.99555856 53 53 53 255
-10.715134 6.413273 -0.38949198 -0.042827975 0.38759005 -0.9208364 165 165 165 255
-10.715134 6.413273 0.6072832 -0.042832818 0.38758996 0.9208362 165 165 165 255
-10.715134 4.0451345 -0.38949198 -0.042832818 -0.38758996 -0.9208362 165 165 165 255
-10.715134 4.0451345 0.6072832 -0.042827975 -0.38759005 0.9208364 165 165 165 255
10.715134 6.413273 -0.38949198 0.042832818 0.38758996 -0.9208362 165 165 165 255
10.715134 6.413273 0.6072832 0.042827975 0.38759005 0.9208364 165 165 165 255
10.715134 4.0451345 -0.38949198 0.042827975 -0.38759005 -0.9208364 165 165 165 255
10.715134 4.0451345 0.6072832 0.042832818 -0.38758996 0.9208362 165 165 165 255
-10.715134 -4.0498495 -0.38949198 -0.042827975 0.38759005 -0.9208364 165 165 165 255
-10.715134 -4.0498495 0.6072832 -0.042832818 0.38758996 0.9208362 165 165 165 255
-10.715134 -6.417988 -0.38949198 -0.042832818 -0.38758996 -0.9208362 165 165 165 255
-10.715134 -6.417988 0.6072832 -0.042827975 -0.38759005 0.9208364 165 165 165 255
10.715134 -4.0498495 -0.38949198 0.042832818 0.38758996 -0.9208362 165 165 165 255
10.715134 -4.0498495 0.6072832 0.042827975 0.38759005 0.9208364 165 165 165 255
10.715134 -6.417988 -0.38949198 0.042827975 -0.38759005 -0.9208364 165 165 165 255
10.715134 -6.417988 0.6072832 0.042832818 -0.38758996 0.9208362 165 165 165 255
5.3361163 -6.0752525 0.112015724 0 0 0.99999994 195 195 195 255
5.3361163 -6.0752525 0.112015724 0 0 0.99999994 195 195 195 255
5.3361163 -6.0752525 0.112015724 0 0 0.99999994 195 195 195 255
5.3361163 -6.0752525 0.112015724 0 0 0.99999994 195 195 195 255
5.3361163 -6.0752525 0.112015724 0.12367665 0 0.99232256 195 195 195 255
5.3361163 -6.0752525 0.112015724 0 -0.12367665 0.99232256 195 195 195 255
5.3361163 -6.0752525 0.112015724 -0.12367665 0 0.99232256 195 195 195 255
5.3361163 -6.0752525 0.112015724 0 0.12367665 0.99232256 195 195 195 255
5.467796 -6.206932 0.24369521 0.65073824 -0.6507198 -0.39128417 195 195 195 255
5.204437 -6.206932 0.24369521 -0.65071994 -0.65073824 -0.3912842 195 195 195 255
5.204437 -5.943573 0.24369521 -0.65073824 0.6507198 -0.39128417 195 195 195 255
5.467796 -5.943573 0.24369521 0.65071994 0.65073824 -0.3912842 195 195 195 255
5.467796 -6.204483 5.2033677 0.66815853 -0.73024476 0.14250147 195 195 195 255
5.204437 -6.204483 5.2033677 -0.6681587 -0.7302462 0.14249389 195 195 195 255
5.204437 -5.946022 5.1528106 -0.7558302 0.64250183 -0.12614347 195 195 195 255
5.467796 -5.946022 5.1528106 0.755828 0.64250547 -0.12613821 195 195 195 255
5.467796 -5.657833 6.5307555 0.6403222 -0.56138223 0.5242494 195 195 195 255
5.204437 -5.657833 6.5307555 -0.6403219 -0.5613925 0.52423865 195 195 195 255
5.204437 -5.465287 6.3510776 -0.8091582 0.42992058 -0.40053865 195 195 195 255
5.467796 -5.465287 6.3510776 0.8091591 0.42992344 -0.40053394 195 195 195 255
5.467796 -4.5424995 7.0828886 0.66213596 -0.16925506 0.7300196 195 195 195 255
5.204437 -4.5424995 7.0828886 -0.66213596 -0.16926417 0.7300175 195 195 195 255
5.204437 -4.483043 6.826329 -0.7658884 0.14504583 -0.6263997 195 195 195 255
5.467796 -4.483043 6.826329 0.7658879 0.14505146 -0.62639904 195 195 195 255
5.467796 -2.9074826 7.0862885 0.5773589 0.5773623 0.5773296 195 195 195 255
5.204437 -2.9074826 7.0862885 -0.5773405 0.5773405 0.57736975 195 195 195 255
5.204437 -2.9074826 6.8229294 -0.5773589 0.5773623 -0.5773296 195 195 195 255
5.467796 -2.9074826 6.8229294 0.5773405 0.5773405 -0.57736975 195 195 195 255
5.467796 -6.206932 0.3653194 0.7070897 -0.7071238 0 195 195 195 255
5.204437 -6.206932 0.3653194 -0.7071238 -0.7070897 0 195 195 195 255
5.204437 -5.943573 0.3653194 -0.7070897 0.7071238 0 195 195 195 255
5.467796 -5.943573 0.3653194 0.7071238 0.7070897 0 195 195 195 255
5.467796 -6.206932 0.6186231 0.70710677 -0.7071068 0 195 195 195 255
5.204437 -6.206932 0.6186231 -0.70710665 -0.70710677 0 195 195 195 255
5.204437 -5.943573 0.6186231 -0.70710677 0.7071068 0 195 195 195 255
5.467796 -5.943573 0.6186231 0.70710665 0.70710677 0 195 195 195 255
5.467796 -6.206932 0.8719267 0.7071067 -0.7071067 0 195 195 195 255
5.204437 -6.206932 0.8719267 -0.7071068 -0.70710677 0 195 195 195 255
5.204437 -5.943573 0.8719267 -0.7071067 0.7071067 0 195 195 195 255
5.467796 -5.943573 0.8719267 0.7071068 0.70710677 0 195 195 195 255
5.467796 -6.206932 1.1252304 0.7071067 -0.7071067 0 195 195 195 255
5.204437 -6.206932 1.1252304 -0.7071067 -0.7071067 0 195 195 195 255
5.204437 -5.943573 1.1252304 -0.7071067 0.7071067 0 195 195 195 255
5.467796 -5.943573 1.1252304 0.7071067 0.7071067 0 195 195 195 255
5.467796 -6.206932 1.3785341 0.7071067 -0.7071067 0 195 195 195 255
5.204437 -6.206932 1.3785341 -0.7071067 -0.7071067 0 195 195 195 255
5.204437 -5.943573 1.3785341 -0.7071067 0.7071067 0 195 195 195 255
5.467796 -5.943573 1.3785341 0.7071067 0.7071067 0 195 195 195 255
5.467796 -6.206932 1.6318377 0.70710677 -0.7071068 0 195 195 195 255
5.204437 -6.206932 1.6318377 -0.7071067 -0.7071067 0 195 195 195 255
5.204437 -5.943573 1.6318377 -0.70710677 0.7071068 0 195 195 195 255
5.467796 -5.943573 1.6318377 0.7071067 0.7071067 0 195 195 195 255
5.467796 -6.206932 1.8851414 0.7071067 -0.7071067 0 195 195 195 255
5.204437 -6.206932 1.8851414 -0.7071067 -0.7071067 0 195 195 195 255
5.204437 -5.943573 1.8851414 -0.7071067 0.7071067 0 195 195 195 255
5.467796 -5.943573 1.8851414 0.7071067 0.7071067 0 195 195 195 255
5.467796 -6.206932 2.1384451 0.70710677 -0.7071068 0 195 195 195 255
5.204437 -6.206932 2.1384451 -0.7071067 -0.7071067 0 195 195 195 255
5.204437 -5.943573 2.1384451 -0.70710677 0.7071068 0 195 195 195 255
5.467796 -5.943573 2.1384451 0.7071067 0.7071067 0 195 195 195 255
5.467796 -6.206932 2.3917484 0.70710677 -0.7071068 0 195 195 195 255
5.204437 -6.206932 2.3917484 -0.70710665 -0.70710677 0 195 195 195 255
5.204437 -5.943573 2.3917484 -0.70710677 0.7071068 0 195 195 195 255
5.467796 -5.943573 2.3917484 0.70710665 0.70710677 0 195 195 195 255
5.467796 -6.206932 2.6450524 0.70710677 -0.7071068 0 195 195 195 255
5.204437 -6.206932 2.6450524 -0.7071067 -0.7071067 0 195 195 195 255
5.204437 -5.943573 2.6450524 -0.70710677 0.7071068 0 195 195 195 255
5.467796 -5.943573 2.6450524 0.7071067 0.7071067 0 195 195 195 255
5.467796 -6.206932 2.8983562 0.70710677 -0.7071068 0 195 195 195 255
5.204437 -6.206932 2.8983562 -0.7071067 -0.7071067 0 195 195 195 255
5.204437 -5.943573 2.8983562 -0.70710677 0.7071068 0 195 195 195 255
5.467796 -5.943573 2.8983562 0.7071067 0.7071067 0 195 195 195 255
5.467796 -6.206932 3.1516597 0.70710677 -0.7071068 0 195 195 195 255
5.204437 -6.206932 3.1516597 -0.7071068 -0.70710677 0 195 195 195 255
5.204437 -5.943573 3.1516597 -0.70710677 0.7071068 0 195 195 195 255
5.467796 -5.943573 3.1516597 0.7071068 0.70710677 0 195 195 195 255
5.467796 -6.206932 3.4049633 0.70710677 -0.7071067 0 195 195 195 255
5.204437 -6.206932 3.4049633 -0.70710665 -0.70710677 0 195 195 195 255
5.204437 -5.943573 3.4049633 -0.70710677 0.7071067 0 195 195 195 255
5.467796 -5.943573 3.4049633 0.70710665 0.70710677 0 195 195 195 255
5.467796 -6.206932 3.658267 0.70710677 -0.7071068 0 195 195 195 255
5.204437 -6.206932 3.658267 -0.7071067 -0.7071067 0 195 195 195 255
5.204437 -5.943573 3.658267 -0.70710677 0.7071068 0 195 195 195 255
5.467796 -5.943573 3.658267 0.7071067 0.7071067 0 195 195 195 255
5.467796 -6.206932 3.9115705 0.7071067 -0.7071067 0 195 195 195 255
5.204437 -6.206932 3.9115705 -0.7071067 -0.7071067 0 195 195 195 255
5.204437 -5.943573 3.9115705 -0.7071067 0.7071067 0 195 195 195 255
5.467796 -5.943573 3.9115705 0.7071067 0.7071067 0 195 195 195 255
5.467796 -6.206932 4.1648746 0.70710677 -0.7071068 0 195 195 195 255
5.204437 -6.206932 4.1648746 -0.7071067 -0.7071067 0 195 195 195 255
5.204437 -5.943573 4.1648746 -0.70710677 0.7071068 0 195 195 195 255
5.467796 -5.943573 4.1648746 0.7071067 0.7071067 0 195 195 195 255
5.467796 -6.206932 4.418178 0.70710677 -0.7071068 0 195 195 195 255
5.204437 -6.206932 4.418178 -0.7071067 -0.7071067 0 195 195 195 255
5.204437 -5.943573 4.418178 -0.70710677 0.7071068 0 195 195 195 255
5.467796 -5.943573 4.418178 0.7071067 0.7071067 0 195 195 195 255
5.467796 -6.206932 4.671481 0.70710677 -0.7071068 0 195 195 195 255
5.204437 -6.206932 4.671481 -0.7071068 -0.70710677 0 195 195 195 255
5.204437 -5.943573 4.671481 -0.70710677 0.7071068 0 195 195 195 255
5.467796 -5.943573 4.671481 0.7071068 0.70710677 0 195 195 195 255
5.467796 -6.206932 4.9247856 0.7061282 -0.7080772 0.0031125203 195 195 195 255
5.204437 -6.206932 4.9247856 -0.70611805 -0.7080873 0.0031123906 195 195 195 255
5.204437 -5.943573 4.9247856 -0.7059026 0.7082986 0.0038037652 195 195 195 255
5.467796 -5.943573 4.9247856 0.7058915 0.7083097 0.0038036222 195 195 195 255
5.467796 -6.1116114 5.4381766 0.70601505 -0.65728575 0.2636629 195 195 195 255
5.204437 -6.1116114 5.4381766 -0.70601404 -0.6572868 0.26366317 195 195 195 255
5.204437 -5.867663 5.3389435 -0.70574605 0.6546171 -0.27092224 195 195 195 255
5.467796 -5.867663 5.3389435 0.7057485 0.6546148 -0.27092147 195 195 195 255
5.467796 -6.0259957 5.648648 0.7071067 -0.65498984 0.26643652 195 195 195 255
5.204437 -6.0259957 5.648648 -0.7071067 -0.65498984 0.26643652 195 195 195 255
5.204437 -5.7820477 5.549415 -0.7071069 0.65498966 -0.26643643 195 195 195 255
5.467796 -5.7820477 5.549415 0.7071069 0.6549897 -0.26643646 195 195 195 255
5.467796 -5.9403806 5.859119 0.7071069 -0.65498966 0.26643643 195 195 195 255
5.204437 -5.9403806 5.859119 -0.7071069 -0.65498966 0.26643643 195 195 195 255
5.204437 -5.696432 5.7598863 -0.7071067 0.65498984 -0.26643655 195 195 195 255
5.467796 -5.696432 5.7598863 0.7071067 0.65498984 -0.26643652 195 195 195 255
5.467796 -5.854765 6.0695906 0.7071067 -0.65498984 0.2664362 195 195 195 255
5.204437 -5.854765 6.0695906 -0.7071067 -0.65498984 0.2664362 195 195 195 255
5.204437 -5.610817 5.9703574 -0.7071067 0.65498984 -0.26643616 195 195 195 255
5.467796 -5.610817 5.9703574 0.7071067 0.6549899 -0.2664362 195 195 195 255
5.467796 -5.76915 6.2800617 0.70357823 -0.65393686 0.27810794 195 195 195 255
5.204437 -5.76915 6.2800617 -0.70357937 -0.6539362 0.27810696 195 195 195 255
5.204437 -5.5252013 6.180829 -0.70175177 0.6661586 -0.25254127 195 195 195 255
5.467796 -5.5252013 6.180829 0.7017462 0.6661635 -0.25254378 195 195 195 255
5.467796 -5.4097238 6.6619115 0.70365983 -0.3223412 0.63321316 195 195 195 255
5.204437 -5.4097238 6.6619115 -0.70365924 -0.32234195 0.63321346 195 195 195 255
5.204437 -5.293881 6.4253983 -0.70192605 0.29839793 -0.646729 195 195 195 255
5.467796 -5.293881 6.4253983 0.7019311 0.29839525 -0.6467249 195 195 195 255
5.467796 -5.199966 6.76465 0.70710665 -0.31103322 0.6350263 195 195 195 255
5.204437 -5.199966 6.76465 -0.7071067 -0.31103316 0.6350263 195 195 195 255
5.204437 -5.084123 6.5281367 -0.7071067 0.31103334 -0.6350263 195 195 195 255
5.467796 -5.084123 6.5281367 0.7071067 0.31103334 -0.6350262 195 195 195 255
5.467796 -4.990208 6.8673882 0.70710677 -0.31103328 0.6350263 195 195 195 255
5.204437 -4.990208 6.8673882 -0.7071067 -0.31103328 0.6350263 195 195 195 255
5.204437 -4.8743653 6.630875 -0.7071067 0.3110333 -0.6350263 195 195 195 255
5.467796 -4.8743653 6.630875 0.7071067 0.31103334 -0.6350262 195 195 195 255
5.467796 -4.780451 6.970127 0.7056539 -0.30755642 0.63832724 195 195 195 255
5.204437 -4.780451 6.970127 -0.7056547 -0.3075564 0.6383263 195 195 195 255
5.204437 -4.6646075 6.733614 -0.7052395 0.31715086 -0.6340762 195 195 195 255
5.467796 -4.6646075 6.733614 0.7052369 0.31715164 -0.63407856 195 195 195 255
5.467796 -4.2834444 7.0862885 0.70564 -0.004649785 0.70855516 195 195 195 255
5.204437 -4.2834444 7.0862885 -0.70563906 -0.0046500373 0.70855623 195 195 195 255
5.204437 -4.2834444 6.8229294 -0.7051879 -0.0060366374 -0.7089946 195 195 195 255
5.467796 -4.2834444 6.8229294 0.7051909 -0.006036866 -0.70899177 195 195 195 255
5.467796 -4.054117 7.086289 0.70709705 7.74493e-07 0.7071165 195 195 195 255
5.204437 -4.054117 7.086289 -0.70709705 7.743747e-07 0.7071165 195 195 195 255
5.204437 -4.0541177 6.82293 -0.70711654 -7.744715e-07 -0.70709705 195 195 195 255
5.467796 -4.0541177 6.82293 0.7071165 -7.743551e-07 -0.70709705 195 195 195 255
5.467796 -3.8247902 7.086288 0.7071165 7.743514e-07 0.70709705 195 195 195 255
5.204437 -3.8247902 7.086288 -0.7071165 7.7446913e-07 0.70709705 195 195 195 255
5.204437 -3.8247907 6.822929 -0.707097 -7.7437613e-07 -0.7071165 195 195 195 255
5.467796 -3.8247907 6.822929 0.7070971 -7.744957e-07 -0.7071165 195 195 195 255
5.467796 -3.5954638 7.0862885 0.7070976 -7.744148e-07 0.707116 195 195 195 255
5.204437 -3.5954638 7.0862885 -0.7070976 -7.7445407e-07 0.70711595 195 195 195 255
5.204437 -3.5954633 6.8229294 -0.70711595 7.7439114e-07 -0.7070975 195 195 195 255
5.467796 -3.5954633 6.8229294 0.70711595 7.744305e-07 -0.7070976 195 195 195 255
5.467796 -3.3661363 7.0862885 0.70710677 0 0.7071067 195 195 195 255
5.204437 -3.3661363 7.0862885 -0.70711577 0 0.7070978 195 195 195 255
5.204437 -3.3661363 6.8229294 -0.7070978 0 -0.7071157 195 195 195 255
5.467796 -3.3661363 6.8229294 0.70710677 0 -0.70710677 195 195 195 255
5.467796 -3.1368096 7.0862885 0.70710677 0 0.70710677 195 195 195 255
5.204437 -3.1368096 7.0862885 -0.70710677 0 0.7071067 195 195 195 255
5.204437 -3.1368096 6.8229294 -0.70710677 0 -0.70710677 195 195 195 255
5.467796 -3.1368096 6.8229294 0.70710677 0 -0.7071067 195 195 195 255
5.219883 -4.7450576 6.80816 -0.29859453 -0.038271025 -0.95361245 0 0 0 0
5.219883 -4.7450576 6.880954 -0.29862538 -0.038270637 0.9536028 0 0 0 0
5.219883 -2.9312239 6.80816 -0.29862538 0.038270637 -0.9536028 0 0 0 0
5.219883 -2.9312239 6.880954 -0.29859453 0.038271025 0.95361245 0 0 0 0
5.4523497 -4.7450576 6.80816 0.29862538 -0.038270637 -0.9536028 0 0 0 0
5.4523497 -4.7450576 6.880954 0.29859453 -0.038271025 0.95361245 0 0 0 0
5.4523497 -2.9312239 6.80816 0.29859453 0.038271025 -0.95361245 0 0 0 0
5.4523497 -2.9312239 6.880954 0.29862538 0.038270637 0.9536028 0 0 0 0
-4.9948297 6.13402 0.112015724 0 0 0.99999994 195 195 195 255
-4.9948297 6.13402 0.112015724 0 0 0.99999994 195 195 195 255
-4.9948297 6.13402 0.112015724 0 0 0.99999994 195 195 195 255
-4.9948297 6.13402 0.112015724 0 0 0.99999994 195 195 195 255
-4.9948297 6.13402 0.112015724 -0.12367665 -1.0812156e-08 0.99232256 195 195 195 255
-4.9948297 6.13402 0.112015724 -1.0812156e-08 0.12367665 0.99232256 195 195 195 255
-4.9948297 6.13402 0.112015724 0.12367665 1.0812156e-08 0.99232256 195 195 195 255
-4.9948297 6.13402 0.112015724 1.0812156e-08 -0.12367665 0.99232256 195 195 195 255
-5.126509 6.2656994 0.24369521 -0.6507383 0.65071976 -0.39128417 195 195 195 255
-4.86315 6.2656994 0.24369521 0.6507199 0.6507383 -0.3912842 195 195 195 255
-4.86315 6.0023403 0.24369521 0.6507383 -0.65071976 -0.39128417 195 195 195 255
-5.126509 6.0023403 0.24369521 -0.6507199 -0.6507383 -0.3912842 195 195 195 255
-5.126509 6.2632504 5.2033677 -0.66815865 0.7302447 0.14250147 195 195 195 255
-4.86315 6.2632504 5.2033677 0.66815865 0.73024625 0.14249389 195 195 195 255
-4.86315 6.0047894 5.1528106 0.7558303 -0.6425018 -0.12614347 195 195 195 255
-5.126509 6.0047894 5.1528106 -0.75582796 -0.6425055 -0.12613821 195 195 195 255
-5.126509 5.7166004 6.5307555 -0.64032227 0.5613822 0.5242494 195 195 195 255
-4.86315 5.7166004 6.5307555 0.64032185 0.56139255 0.52423865 195 195 195 255
-4.86315 5.5240545 6.3510776 0.80915827 -0.42992052 -0.40053865 195 195 195 255
-5.126509 5.5240545 6.3510776 -0.80915904 -0.42992353 -0.40053394 195 195 195 255
-5.126509 4.601267 7.0828886 -0.66213596 0.16925499 0.7300196 195 195 195 255
-4.86315 4.601267 7.0828886 0.66213596 0.16926423 0.7300175 195 195 195 255
-4.86315 4.5418105 6.826329 0.7658884 -0.14504576 -0.6263997 195 195 195 255
-5.126509 4.5418105 6.826329 -0.7658879 -0.14505152 -0.62639904 195 195 195 255
-5.1265087 2.96625 7.0862885 -0.57735884 -0.57736236 0.5773296 195 195 195 255
-4.86315 2.96625 7.0862885 0.57734054 -0.5773404 0.57736975 195 195 195 255
-4.86315 2.96625 6.8229294 0.57735896 -0.57736224 -0.5773296 195 195 195 255
-5.1265087 2.96625 6.8229294 -0.5773404 -0.57734054 -0.57736975 195 195 195 255
-5.126509 6.2656994 0.3653194 -0.7070898 0.70712376 0 195 195 195 255
-4.86315 6.2656994 0.3653194 0.70712376 0.7070898 0 195 195 195 255
-4.86315 6.0023403 0.3653194 0.7070898 -0.70712376 0 195 195 195 255
-5.126509 6.0023403 0.3653194 -0.70712376 -0.7070898 0 195 195 195 255
-5.126509 6.2656994 0.6186231 -0.7071068 0.70710677 0 195 195 195 255
-4.86315 6.2656994 0.6186231 0.7071066 0.7071068 0 195 195 195 255
-4.86315 6.0023403 0.6186231 0.7071068 -0.70710677 0 195 195 195 255
-5.126509 6.0023403 0.6186231 -0.7071066 -0.7071068 0 195 195 195 255
-5.126509 6.2656994 0.8719267 -0.70710677 0.70710665 0 195 195 195 255
-4.86315 6.2656994 0.8719267 0.70710677 0.7071068 0 195 195 195 255
-4.86315 6.0023403 0.8719267 0.70710677 -0.70710665 0 195 195 195 255
-5.126509 6.0023403 0.8719267 -0.70710677 -0.7071068 0 195 195 195 255
-5.126509 6.2656994 1.1252304 -0.70710677 0.70710665 0 195 195 195 255
-4.86315 6.2656994 1.1252304 0.70710665 0.70710677 0 195 195 195 255
-4.86315 6.0023403 1.1252304 0.70710677 -0.70710665 0 195 195 195 255
-5.126509 6.0023403 1.1252304 -0.70710665 -0.70710677 0 195 195 195 255
-5.126509 6.2656994 1.3785341 -0.70710677 0.70710665 0 195 195 195 255
-4.86315 6.2656994 1.3785341 0.70710665 0.70710677 0 195 195 195 255
-4.86315 6.0023403 1.3785341 0.70710677 -0.70710665 0 195 195 195 255
-5.126509 6.0023403 1.3785341 -0.70710665 -0.70710677 0 195 195 195 255
-5.126509 6.2656994 1.6318377 -0.7071068 0.70710677 0 195 195 195 255
-4.86315 6.2656994 1.6318377 0.70710665 0.70710677 0 195 195 195 255
-4.86315 6.0023403 1.6318377 0.7071068 -0.70710677 0 195 195 195 255
-5.126509 6.0023403 1.6318377 -0.70710665 -0.70710677 0 195 195 195 255
-5.126509 6.2656994 1.8851414 -0.70710677 0.70710665 0 195 195 195 255
-4.86315 6.2656994 1.8851414 0.70710665 0.70710677 0 195 195 195 255
-4.86315 6.0023403 1.8851414 0.70710677 -0.70710665 0 195 195 195 255
-5.126509 6.0023403 1.8851414 -0.70710665 -0.70710677 0 195 195 195 255
-5.126509 6.2656994 2.1384451 -0.7071068 0.70710677 0 195 195 195 255
-4.86315 6.2656994 2.1384451 0.70710665 0.70710677 0 195 195 195 255
-4.86315 6.0023403 2.1384451 0.7071068 -0.70710677 0 195 195 195 255
-5.126509 6.0023403 2.1384451 -0.70710665 -0.70710677 0 195 195 195 255
-5.126509 6.2656994 2.3917484 -0.7071068 0.70710677 0 195 195 195 255
-4.86315 6.2656994 2.3917484 0.7071066 0.7071068 0 195 195 195 255
-4.86315 6.0023403 2.3917484 0.7071068 -0.70710677 0 195 195 195 255
-5.126509 6.0023403 2.3917484 -0.7071066 -0.7071068 0 195 195 195 255
-5.126509 6.2656994 2.6450524 -0.7071068 0.70710677 0 195 195 195 255
-4.86315 6.2656994 2.6450524 0.70710665 0.70710677 0 195 195 195 255
-4.86315 6.0023403 2.6450524 0.7071068 -0.70710677 0 195 195 195 255
-5.126509 6.0023403 2.6450524 -0.70710665 -0.70710677 0 195 195 195 255
-5.126509 6.2656994 2.8983562 -0.7071068 0.70710677 0 195 195 195 255
-4.86315 6.2656994 2.8983562 0.70710665 0.70710677 0 195 195 195 255
-4.86315 6.0023403 2.8983562 0.7071068 -0.70710677 0 195 195 195 255
-5.126509 6.0023403 2.8983562 -0.70710665 -0.70710677 0 195 195 195 255
-5.126509 6.2656994 3.1516597 -0.7071068 0.70710677 0 195 195 195 255
-4.86315 6.2656994 3.1516597 0.70710677 0.7071068 0 195 195 195 255
-4.86315 6.0023403 3.1516597 0.7071068 -0.70710677 0 195 195 195 255
-5.126509 6.0023403 3.1516597 -0.70710677 -0.7071068 0 195 195 195 255
-5.126509 6.2656994 3.4049633 -0.7071068 0.70710665 0 195 195 195 255
-4.86315 6.2656994 3.4049633 0.7071066 0.7071068 0 195 195 195 255
-4.86315 6.0023403 3.4049633 0.7071068 -0.70710665 0 195 195 195 255
-5.126509 6.0023403 3.4049633 -0.7071066 -0.7071068 0 195 195 195 255
-5.126509 6.2656994 3.658267 -0.7071068 0.70710677 0 195 195 195 255
-4.86315 6.2656994 3.658267 0.70710665 0.70710677 0 195 195 195 255
-4.86315 6.0023403 3.658267 0.7071068 -0.70710677 0 195 195 195 255
-5.126509 6.0023403 3.658267 -0.70710665 -0.70710677 0 195 195 195 255
-5.126509 6.2656994 3.9115705 -0.70710677 0.70710665 0 195 195 195 255
-4.86315 6.2656994 3.9115705 0.70710665 0.70710677 0 195 195 195 255
-4.86315 6.0023403 3.9115705 0.70710677 -0.70710665 0 195 195 195 255
-5.126509 6.0023403 3.9115705 -0.70710665 -0.70710677 0 195 195 195 255
-5.126509 6.2656994 4.1648746 -0.7071068 0.70710677 0 195 195 195 255
-4.86315 6.2656994 4.1648746 0.70710665 0.70710677 0 195 195 195 255
-4.86315 6.0023403 4.1648746 0.7071068 -0.70710677 0 195 195 195 255
-5.126509 6.0023403 4.1648746 -0.70710665 -0.70710677 0 195 195 195 255
-5.126509 6.2656994 4.418178 -0.7071068 0.70710677 0 195 195 195 255
-4.86315 6.2656994 4.418178 0.70710665 0.70710677 0 195 195 195 255
-4.86315 6.0023403 4.418178 0.7071068 -0.70710677 0 195 195 195 255
-5.126509 6.0023403 4.418178 -0.70710665 -0.70710677 0 195 195 195 255
-5.126509 6.2656994 4.671481 -0.7071068 0.70710677 0 195 195 195 255
-4.86315 6.2656994 4.671481 0.70710677 0.7071068 0 195 195 195 255
-4.86315 6.0023403 4.671481 0.7071068 -0.70710677 0 195 195 195 255
-5.126509 6.0023403 4.671481 -0.70710677 -0.7071068 0 195 195 195 255
-5.126509 6.2656994 4.9247856 -0.70612824 0.70807713 0.0031125203 195 195 195 255
-4.86315 6.2656994 4.9247856 0.706118 0.7080874 0.0031123906 195 195 195 255
-4.86315 6.0023403 4.9247856 0.70590264 -0.70829856 0.0038037652 195 195 195 255
-5.126509 6.0023403 4.9247856 -0.70589143 -0.70830977 0.0038036222 195 195 195 255
-5.126509 6.1703787 5.4381766 -0.7060151 0.6572857 0.2636629 195 195 195 255
-4.86315 6.1703787 5.4381766 0.706014 0.6572869 0.26366317 195 195 195 255
-4.86315 5.92643 5.3389435 0.7057461 -0.654617 -0.27092224 195 195 195 255
-5.126509 5.92643 5.3389435 -0.70574844 -0.65461487 -0.27092147 195 195 195 255
-5.126509 6.084763 5.648648 -0.70710677 0.6549898 0.26643652 195 195 195 255
-4.86315 6.084763 5.648648 0.70710665 0.65498996 0.26643652 195 195 195 255
-4.86315 5.840815 5.549415 0.70710695 -0.6549896 -0.26643643 195 195 195 255
-5.126509 5.840815 5.549415 -0.7071068 -0.6549898 -0.26643646 195 195 195 255
-5.126509 5.999148 5.859119 -0.70710695 0.6549896 0.26643643 195 195 195 255
-4.86315 5.999148 5.859119 0.7071068 0.6549897 0.26643643 195 195 195 255
-4.86315 5.7551994 5.7598863 0.70710677 -0.6549898 -0.26643655 195 195 195 255
-5.126509 5.7551994 5.7598863 -0.70710665 -0.65498996 -0.26643652 195 195 195 255
-5.126509 5.9135323 6.0695906 -0.70710677 0.6549898 0.2664362 195 195 195 255
-4.86315 5.9135323 6.0695906 0.70710665 0.6549899 0.2664362 195 195 195 255
-4.86315 5.6695843 5.9703574 0.70710677 -0.6549898 -0.26643616 195 195 195 255
-5.126509 5.6695843 5.9703574 -0.70710665 -0.65498996 -0.2664362 195 195 195 255
-5.126509 5.827917 6.2800617 -0.70357835 0.6539368 0.27810794 195 195 195 255
-4.86315 5.827917 6.2800617 0.7035793 0.65393627 0.27810696 195 195 195 255
-4.86315 5.5839686 6.180829 0.7017518 -0.66615856 -0.25254127 195 195 195 255
-5.126509 5.5839686 6.180829 -0.70174617 -0.66616356 -0.25254378 195 195 195 255
-5.126509 5.468491 6.6619115 -0.70365983 0.32234114 0.63321316 195 195 195 255
-4.86315 5.468491 6.6619115 0.70365924 0.322342 0.63321346 195 195 195 255
-4.86315 5.3526483 6.4253983 0.70192605 -0.29839787 -0.646729 195 195 195 255
-5.126509 5.3526483 6.4253983 -0.7019311 -0.2983953 -0.6467249 195 195 195 255
-5.126509 5.2587333 6.76465 -0.70710665 0.31103316 0.6350263 195 195 195 255
-4.86315 5.2587333 6.76465 0.7071067 0.31103322 0.6350263 195 195 195 255
-4.86315 5.1428905 6.5281367 0.7071067 -0.31103328 -0.6350263 195 195 195 255
-5.126509 5.1428905 6.5281367 -0.7071067 -0.3110334 -0.6350262 195 195 195 255
-5.126509 5.0489755 6.8673882 -0.70710677 0.31103322 0.6350263 195 195 195 255
-4.86315 5.0489755 6.8673882 0.7071067 0.31103334 0.6350263 195 195 195 255
-4.86315 4.9331326 6.630875 0.7071067 -0.31103325 -0.6350263 195 195 195 255
-5.126509 4.9331326 6.630875 -0.7071067 -0.3110334 -0.6350262 195 195 195 255
-5.126509 4.839218 6.970127 -0.7056539 0.30755633 0.63832724 195 195 195 255
-4.86315 4.839218 6.970127 0.7056547 0.30755645 0.6383263 195 195 195 255
-4.86315 4.723375 6.733614 0.7052395 -0.3171508 -0.6340762 195 195 195 255
-5.126509 4.723375 6.733614 -0.7052369 -0.3171517 -0.63407856 195 195 195 255
-5.126509 4.3422117 7.0862885 -0.70564 0.004649723 0.70855516 195 195 195 255
-4.86315 4.3422117 7.0862885 0.70563906 0.004650099 0.70855623 195 195 195 255
-4.86315 4.3422117 6.8229294 0.7051879 0.0060366993 -0.7089946 195 195 195 255
-5.126509 4.3422117 6.8229294 -0.7051909 0.0060368045 -0.70899177 195 195 195 255
-5.1265087 4.1128845 7.086289 -0.70709705 -8.3630937e-07 0.7071165 195 195 195 255
-4.86315 4.1128845 7.086289 0.70709705 -7.1255835e-07 0.7071165 195 195 195 255
-4.86315 4.112885 6.82293 0.70711654 8.3628964e-07 -0.70709705 195 195 195 255
-5.1265087 4.112885 6.82293 -0.7071165 7.1253703e-07 -0.70709705 195 195 195 255
-5.1265087 3.8835576 7.086288 -0.7071165 -8.3616953e-07 0.70709705 195 195 195 255
-4.86315 3.8835576 7.086288 0.7071165 -7.12651e-07 0.70709705 195 195 195 255
-4.86315 3.883558 6.822929 0.707097 8.361925e-07 -0.7071165 195 195 195 255
-5.1265087 3.883558 6.822929 -0.7070971 7.126793e-07 -0.7071165 195 195 195 255
-5.1265087 3.654231 7.0862885 -0.7070976 7.125983e-07 0.707116 195 195 195 255
-4.86315 3.654231 7.0862885 0.7070976 8.362705e-07 0.70711595 195 195 195 255
-4.86315 3.6542306 6.8229294 0.70711595 -7.125731e-07 -0.7070975 195 195 195 255
-5.1265087 3.6542306 6.8229294 -0.70711595 -8.362485e-07 -0.7070976 195 195 195 255
-5.1265087 3.4249036 7.0862885 -0.70710677 -6.181724e-08 0.7071067 195 195 195 255
-4.86315 3.4249036 7.0862885 0.70711577 6.181802e-08 0.7070978 195 195 195 255
-4.86315 3.4249036 6.8229294 0.7070978 6.181646e-08 -0.7071157 195 195 195 255
-5.1265087 3.4249036 6.8229294 -0.70710677 -6.181724e-08 -0.70710677 195 195 195 255
-5.1265087 3.195577 7.0862885 -0.70710677 -6.181724e-08 0.70710677 195 195 195 255
-4.86315 3.195577 7.0862885 0.70710677 6.181724e-08 0.7071067 195 195 195 255
-4.86315 3.195577 6.8229294 0.70710677 6.181724e-08 -0.70710677 195 195 195 255
-5.1265087 3.195577 6.8229294 -0.70710677 -6.181724e-08 -0.7071067 195 195 195 255
-5.111063 2.9820523 6.80816 -0.29859453 -0.038271025 -0.95361245 0 0 0 0
-5.111063 2.9820523 6.880954 -0.29862538 -0.038270637 0.9536028 0 0 0 0
-5.111063 4.795886 6.80816 -0.29862538 0.038270637 -0.9536028 0 0 0 0
-5.111063 4.795886 6.880954 -0.29859453 0.038271025 0.95361245 0 0 0 0
-4.8785963 2.9820523 6.80816 0.29862538 -0.038270637 -0.9536028 0 0 0 0
-4.8785963 2.9820523 6.880954 0.29859453 -0.038271025 0.95361245 0 0 0 0
-4.8785963 4.795886 6.80816 0.29859453 0.038271025 -0.95361245 0 0 0 0
-4.8785963 4.795886 6.880954 0.29862538 0.038270637 0.9536028 0 0 0 0
7.9845686 -0.11100584 0.33378282 0.03827104 -0.29859453 -0.95361245 254 254 254 255
7.9845686 -0.11100584 0.40657684 0.038270652 -0.29862538 0.9536028 254 254 254 255
6.1707354 -0.11100592 0.33378282 -0.038270622 -0.29862538 -0.9536028 254 254 254 255
6.1707354 -0.11100592 0.40657684 -0.03827101 -0.29859453 0.95361245 254 254 254 255
7.9845686 0.12146105 0.33378282 0.038270622 0.29862538 -0.9536028 254 254 254 255
7.9845686 0.12146105 0.40657684 0.03827101 0.29859453 0.95361245 254 254 254 255
6.1707354 0.121460974 0.33378282 -0.03827104 0.29859453 -0.95361245 254 254 254 255
6.1707354 0.121460974 0.40657684 -0.038270652 0.29862538 0.9536028 254 254 254 255
3.3461063 -0.11100584 0.33378282 0.03827104 -0.29859453 -0.95361245 254 254 254 255
3.3461063 -0.11100584 0.40657684 0.038270652 -0.29862538 0.9536028 254 254 254 255
1.5322726 -0.11100592 0.33378282 -0.038270622 -0.29862538 -0.9536028 254 254 254 255
1.5322726 -0.11100592 0.40657684 -0.03827101 -0.29859453 0.95361245 254 254 254 255
3.3461063 0.12146105 0.33378282 0.038270622 0.29862538 -0.9536028 254 254 254 255
3.3461063 0.12146105 0.40657684 0.03827101 0.29859453 0.95361245 254 254 254 255
1.5322726 0.121460974 0.33378282 -0.03827104 0.29859453 -0.95361245 254 254 254 255
1.5322726 0.121460974 0.40657684 -0.038270652 0.29862538 0.9536028 254 254 254 255
-1.506372 -0.11100584 0.33378282 0.03827104 -0.29859453 -0.95361245 254 254 254 255
-1.506372 -0.11100584 0.40657684 0.038270652 -0.29862538 0.9536028 254 254 254 255
-3.3202057 -0.11100592 0.33378282 -0.038270622 -0.29862538 -0.9536028 254 254 254 255
-3.3202057 -0.11100592 0.40657684 -0.03827101 -0.29859453 0.95361245 254 254 254 255
-1.506372 0.12146105 0.33378282 0.038270622 0.29862538 -0.9536028 254 254 254 255
-1.506372 0.12146105 0.40657684 0.03827101 0.29859453 0.95361245 254 254 254 255
-3.3202057 0.121460974 0.33378282 -0.03827104 0.29859453 -0.95361245 254 254 254 255
-3.3202057 0.121460974 0.40657684 -0.038270652 0.29862538 0.9536028 254 254 254 255
-6.2250977 -0.11100584 0.33378282 0.03827104 -0.29859453 -0.95361245 254 254 254 255
-6.2250977 -0.11100584 0.40657684 0.038270652 -0.29862538 0.9536028 254 254 254 255
-8.038932 -0.11100592 0.33378282 -0.038270622 -0.29862538 -0.9536028 254 254 254 255
-8.038932 -0.11100592 0.40657684 -0.03827101 -0.29859453 0.95361245 254 254 254 255
-6.2250977 0.12146105 0.33378282 0.038270622 0.29862538 -0.9536028 254 254 254 255
-6.2250977 0.12146105 0.40657684 0.03827101 0.29859453 0.95361245 254 254 254 255
-8.038932 0.121460974 0.33378282 -0.03827104 0.29859453 -0.95361245 254 254 254 255
-8.038932 0.121460974 0.40657684 -0.038270652 0.29862538 0.9536028 254 254 254 255
3 1 2 0
3 3 6 2
3 7 4 6
3 5 0 4
3 6 0 2
3 3 5 7
3 1 3 2
3 3 7 6
3 7 5 4
3 5 1 0
3 6 4 0
3 3 1 5
3 9 10 8
3 11 14 10
3 15 12 14
3 13 8 12
3 14 8 10
3 11 13 15
3 9 11 10
3 11 15 14
3 15 13 12
3 13 9 8
3 14 12 8
3 11 9 13
3 17 18 16
3 19 22 18
3 23 20 22
3 21 16 20
3 22 16 18
3 19 21 23
3 17 19 18
3 19 23 22
3 23 21 20
3 21 17 16
3 22 20 16
3 19 17 21
3 27 25 24
3 32 29 28
3 33 30 29
3 34 31 30
3 35 28 31
3 50 48 51
3 28 25 24
3 29 26 25
3 30 27 26
3 31 24 27
3 53 32 52
3 54 33 53
3 55 34 54
3 52 35 55
3 57 52 56
3 58 53 57
3 59 54 58
3 56 55 59
3 61 56 60
3 62 57 61
3 63 58 62
3 60 59 63
3 65 60 64
3 66 61 65
3 67 62 66
3 64 63 67
3 69 64 68
3 70 65 69
3 71 66 70
3 68 67 71
3 73 68 72
3 74 69 73
3 75 70 74
3 72 71 75
3 77 72 76
3 78 73 77
3 79 74 78
3 76 75 79
3 81 76 80
3 82 77 81
3 83 78 82
3 80 79 83
3 85 80 84
3 86 81 85
3 87 82 86
3 84 83 87
3 89 84 88
3 90 85 89
3 91 86 90
3 88 87 91
3 93 88 92
3 94 89 93
3 95 90 94
3 92 91 95
3 97 92 96
3 98 93 97
3 99 94 98
3 96 95 99
3 101 96 100
3 102 97 101
3 103 98 102
3 100 99 103
3 105 100 104
3 106 101 105
3 107 102 106
3 104 103 107
3 109 104 108
3 110 105 109
3 111 106 110
3 108 107 111
3 113 108 112
3 114 109 113
3 115 110 114
3 112 111 115
3 117 112 116
3 118 113 117
3 119 114 118
3 116 115 119
3 121 116 120
3 122 117 121
3 123 118 122
3 120 119 123
3 125 120 124
3 126 121 125
3 127 122 126
3 124 123 127
3 37 124 36
3 38 125 37
3 39 126 38
3 39 124 127
3 129 36 128
3 129 38 37
3 131 38 130
3 128 39 131
3 133 128 132
3 133 130 129
3 135 130 134
3 132 131 135
3 137 132 136
3 137 134 133
3 139 134 138
3 136 135 139
3 141 136 140
3 141 138 137
3 143 138 142
3 140 139 143
3 145 140 144
3 145 142 141
3 147 142 146
3 144 143 147
3 41 144 40
3 42 145 41
3 43 146 42
3 43 144 147
3 149 40 148
3 149 42 41
3 151 42 150
3 148 43 151
3 153 148 152
3 154 149 153
3 155 150 154
3 155 148 151
3 157 152 156
3 158 153 157
3 159 154 158
3 159 152 155
3 161 156 160
3 162 157 161
3 163 158 162
3 163 156 159
3 45 160 44
3 46 161 45
3 47 162 46
3 47 160 163
3 165 44 164
3 165 46 45
3 167 46 166
3 164 47 167
3 169 164 168
3 170 165 169
3 171 166 170
3 171 164 167
3 173 168 172
3 173 170 169
3 175 170 174
3 172 171 175
3 177 172 176
3 178 173 177
3 179 174 178
3 179 172 175
3 181 176 180
3 181 178 177
3 183 178 182
3 180 179 183
3 185 180 184
3 186 181 185
3 187 182 186
3 184 183 187
3 49 184 48
3 50 185 49
3 51 186 50
3 48 187 51
3 27 26 25
3 32 33 29
3 33 34 30
3 34 35 31
3 35 32 28
3 50 49 48
3 28 29 25
3 29 30 26
3 30 31 27
3 31 28 24
3 53 33 32
3 54 34 33
3 55 35 34
3 52 32 35
3 57 53 52
3 58 54 53
3 59 55 54
3 56 52 55
3 61 57 56
3 62 58 57
3 63 59 58
3 60 56 59
3 65 61 60
3 66 62 61
3 67 63 62
3 64 60 63
3 69 65 64
3 70 66 65
3 71 67 66
3 68 64 67
3 73 69 68
3 74 70 69
3 75 71 70
3 72 68 71
3 77 73 72
3 78 74 73
3 79 75 74
3 76 72 75
3 81 77 76
3 82 78 77
3 83 79 78
3 80 76 79
3 85 81 80
3 86 82 81
3 87 83 82
3 84 80 83
3 89 85 84
3 90 86 85
3 91 87 86
3 88 84 87
3 93 89 88
3 94 90 89
3 95 91 90
3 92 88 91
3 97 93 92
3 98 94 93
3 99 95 94
3 96 92 95
3 101 97 96
3 102 98 97
3 103 99 98
3 100 96 99
3 105 101 100
3 106 102 101
3 107 103 102
3 104 100 103
3 109 105 104
3 110 106 105
3 111 107 106
3 108 104 107
3 113 109 108
3 114 110 109
3 115 111 110
3 112 108 111
3 117 113 112
3 118 114 113
3 119 115 114
3 116 112 115
3 121 117 116
3 122 118 117
3 123 119 118
3 120 116 119
3 125 121 120
3 126 122 121
3 127 123 122
3 124 120 123
3 37 125 124
3 38 126 125
3 39 127 126
3 39 36 124
3 129 37 36
3 129 130 38
3 131 39 38
3 128 36 39
3 133 129 128
3 133 134 130
3 135 131 130
3 132 128 131
3 137 133 132
3 137 138 134
3 139 135 134
3 136 132 135
3 141 137 136
3 141 142 138
3 143 139 138
3 140 136 139
3 145 141 140
3 145 146 142
3 147 143 142
3 144 140 143
3 41 145 144
3 42 146 145
3 43 147 146
3 43 40 144
3 149 41 40
3 149 150 42
3 151 43 42
3 148 40 43
3 153 149 148
3 154 150 149
3 155 151 150
3 155 152 148
3 157 153 152
3 158 154 153
3 159 155 154
3 159 156 152
3 161 157 156
3 162 158 157
3 163 159 158
3 163 160 156
3 45 161 160
3 46 162 161
3 47 163 162
3 47 44 160
3 165 45 44
3 165 166 46
3 167 47 46
3 164 44 47
3 169 165 164
3 170 166 165
3 171 167 166
3 171 168 164
3 173 169 168
3 173 174 170
3 175 171 170
3 172 168 171
3 177 173 172
3 178 174 173
3 179 175 174
3 179 176 172
3 181 177 176
3 181 182 178
3 183 179 178
3 180 176 179
3 185 181 180
3 186 182 181
3 187 183 182
3 184 180 183
3 49 185 184
3 50 186 185
3 51 187 186
3 48 184 187
3 189 190 188
3 191 194 190
3 195 192 194
3 193 188 192
3 194 188 190
3 191 193 195
3 189 191 190
3 191 195 194
3 195 193 192
3 193 189 188
3 194 192 188
3 191 189 193
3 199 197 196
3 204 201 200
3 205 202 201
3 206 203 202
3 207 200 203
3 222 220 223
3 200 197 196
3 201 198 197
3 202 199 198
3 203 196 199
3 225 204 224
3 226 205 225
3 227 206 226
3 224 207 227
3 229 224 228
3 230 225 229
3 231 226 230
3 228 227 231
3 233 228 232
3 234 229 233
3 235 230 234
3 232 231 235
3 237 232 236
3 238 233 237
3 239 234 238
3 236 235 239
3 241 236 240
3 242 237 241
3 243 238 242
3 240 239 243
3 245 240 244
3 246 241 245
3 247 242 246
3 244 243 247
3 249 244 248
3 250 245 249
3 251 246 250
3 248 247 251
3 253 248 252
3 254 249 253
3 255 250 254
3 252 251 255
3 257 252 256
3 258 253 257
3 259 254 258
3 256 255 259
3 261 256 260
3 262 257 261
3 263 258 262
3 260 259 263
3 265 260 264
3 266 261 265
3 267 262 266
3 264 263 267
3 269 264 268
3 270 265 269
3 271 266 270
3 268 267 271
3 273 268 272
3 274 269 273
3 275 270 274
3 272 271 275
3 277 272 276
3 278 273 277
3 279 274 278
3 276 275 279
3 281 276 280
3 282 277 281
3 283 278 282
3 280 279 283
3 285 280 284
3 286 281 285
3 287 282 286
3 284 283 287
3 289 284 288
3 290 285 289
3 291 286 290
3 288 287 291
3 293 288 292
3 294 289 293
3 295 290 294
3 292 291 295
3 297 292 296
3 298 293 297
3 299 294 298
3 296 295 299
3 209 296 208
3 210 297 209
3 211 298 210
3 211 296 299
3 301 208 300
3 301 210 209
3 303 210 302
3 300 211 303
3 305 300 304
3 305 302 301
3 307 302 306
3 304 303 307
3 309 304 308
3 309 306 305
3 311 306 310
3 308 307 311
3 313 308 312
3 313 310 309
3 315 310 314
3 312 311 315
3 317 312 316
3 317 314 313
3 319 314 318
3 316 315 319
3 213 316 212
3 214 317 213
3 215 318 214
3 215 316 319
3 321 212 320
3 321 214 213
3 323 214 322
3 320 215 323
3 325 320 324
3 326 321 325
3 327 322 326
3 327 320 323
3 329 324 328
3 330 325 329
3 331 326 330
3 331 324 327
3 333 328 332
3 334 329 333
3 335 330 334
3 335 328 331
3 217 332 216
3 218 333 217
3 219 334 218
3 219 332 335
3 337 216 336
3 337 218 217
3 339 218 338
3 336 219 339
3 341 336 340
3 342 337 341
3 343 338 342
3 343 336 339
3 345 340 344
3 345 342 341
3 347 342 346
3 344 343 347
3 349 344 348
3 350 345 349
3 351 346 350
3 351 344 347
3 353 348 352
3 353 350 349
3 355 350 354
3 352 351 355
3 357 352 356
3 358 353 357
3 359 354 358
3 356 355 359
3 221 356 220
3 222 357 221
3 223 358 222
3 220 359 223
3 199 198 197
3 204 205 201
3 205 206 202
3 206 207 203
3 207 204 200
3 222 221 220
3 200 201 197
3 201 202 198
3 202 203 199
3 203 200 196
3 225 205 204
3 226 206 205
3 227 207 206
3 224 204 207
3 229 225 224
3 230 226 225
3 231 227 226
3 228 224 227
3 233 229 228
3 234 230 229
3 235 231 230
3 232 228 231
3 237 233 232
3 238 234 233
3 239 235 234
3 236 232 235
3 241 237 236
3 242 238 237
3 243 239 238
3 240 236 239
3 245 241 240
3 246 242 241
3 247 243 242
3 244 240 243
3 249 245 244
3 250 246 245
3 251 247 246
3 248 244 247
3 253 249 248
3 254 250 249
3 255 251 250
3 252 248 251
3 257 253 252
3 258 254 253
3 259 255 254
3 256 252 255
3 261 257 256
3 262 258 257
3 263 259 258
3 260 256 259
3 265 261 260
3 266 262 261
3 267 263 262
3 264 260 263
3 269 265 264
3 270 266 265
3 271 267 266
3 268 264 267
3 273 269 268
3 274 270 269
3 275 271 270
3 272 268 271
3 277 273 272
3 278 274 273
3 279 275 274
3 276 272 275
3 281 277 276
3 282 278 277
3 283 279 278
3 280 276 279
3 285 281 280
3 286 282 281
3 287 283 282
3 284 280 283
3 289 285 284
3 290 286 285
3 291 287 286
3 288 284 287
3 293 289 288
3 294 290 289
3 295 291 290
3 292 288 291
3 297 293 292
3 298 294 293
3 299 295 294
3 296 292 295
3 209 297 296
3 210 298 297
3 211 299 298
3 211 208 296
3 301 209 208
3 301 302 210
3 303 211 210
3 300 208 211
3 305 301 300
3 305 306 302
3 307 303 302
3 304 300 303
3 309 305 304
3 309 310 306
3 311 307 306
3 308 304 307
3 313 309 308
3 313 314 310
3 315 311 310
3 312 308 311
3 317 313 312
3 317 318 314
3 319 315 314
3 316 312 315
3 213 317 316
3 214 318 317
3 215 319 318
3 215 212 316
3 321 213 212
3 321 322 214
3 323 215 214
3 320 212 215
3 325 321 320
3 326 322 321
3 327 323 322
3 327 324 320
3 329 325 324
3 330 326 325
3 331 327 326
3 331 328 324
3 333 329 328
3 334 330 329
3 335 331 330
3 335 332 328
3 217 333 332
3 218 334 333
3 219 335 334
3 219 216 332
3 337 217 216
3 337 338 218
3 339 219 218
3 336 216 219
3 341 337 336
3 342 338 337
3 343 339 338
3 343 340 336
3 345 341 340
3 345 346 342
3 347 343 342
3 344 340 343
3 349 345 344
3 350 346 345
3 351 347 346
3 351 348 344
3 353 349 348
3 353 354 350
3 355 351 350
3 352 348 351
3 357 353 352
3 358 354 353
3 359 355 354
3 356 352 355
3 221 357 356
3 222 358 357
3 223 359 358
3 220 356 359
3 361 362 360
3 363 366 362
3 367 364 366
3 365 360 364
3 366 360 362
3 363 365 367
3 361 363 362
3 363 367 366
3 367 365 364
3 365 361 360
3 366 364 360
3 363 361 365
3 369 370 368
3 371 374 370
3 375 372 374
3 373 368 372
3 374 368 370
3 371 373 375
3 369 371 370
3 371 375 374
3 375 373 372
3 373 369 368
3 374 372 368
3 371 369 373
3 377 378 376
3 379 382 378
3 383 380 382
3 381 376 380
3 382 376 378
3 379 381 383
3 377 379 378
3 379 383 382
3 383 381 380
3 381 377 376
3 382 380 376
3 379 377 381
3 385 386 384
3 387 390 386
3 391 388 390
3 389 384 388
3 390 384 386
3 387 389 391
3 385 387 386
3 387 391 390
3 391 389 388
3 389 385 384
3 390 388 384
3 387 385 389
3 393 394 392
3 395 398 394
3 399 396 398
3 397 392 396
3 398 392 394
3 395 397 399
3 393 395 394
3 395 399 398
3 399 397 396
3 397 393 392
3 398 396 392
3 395 393 397
